<svg xmlns="http://www.w3.org/2000/svg" viewBox="0 0 64 64" role="img" aria-label="HandyQuote">
  <defs>
    <linearGradient id="lg-bg" x1="12" y1="4" x2="52" y2="60" gradientUnits="userSpaceOnUse">
      <stop stop-color="#6366f1"/>
      <stop offset="1" stop-color="#4338ca"/>
    </linearGradient>
  </defs>
  <rect width="64" height="64" rx="14" fill="url(#lg-bg)"/>
  <path d="M18 14h22l8 8v28a4 4 0 0 1-4 4H18a4 4 0 0 1-4-4V18a4 4 0 0 1 4-4z" fill="#fff"/>
  <path d="M40 14v6a2 2 0 0 0 2 2h6" fill="#e0e7ff"/>
  <rect x="22" y="28" width="20" height="2.5" rx="1.25" fill="#4f46e5" opacity=".9"/>
  <rect x="22" y="34.5" width="16" height="2.5" rx="1.25" fill="#4f46e5" opacity=".55"/>
  <rect x="22" y="41" width="18" height="2.5" rx="1.25" fill="#4f46e5" opacity=".4"/>
  <circle cx="44" cy="46" r="9" fill="#4f46e5"/>
  <path d="M39.8 46.1l2.6 2.6 5.4-5.8" fill="none" stroke="#fff" stroke-width="2.4" stroke-linecap="round" stroke-linejoin="round"/>
</svg>
